<?xml version="1.0" standalone="no"?>
<!DOCTYPE svg PUBLIC "-//W3C//DTD SVG 20010904//EN"
 "http://www.w3.org/TR/2001/REC-SVG-20010904/DTD/svg10.dtd">
<svg version="1.0" xmlns="http://www.w3.org/2000/svg"
 width="260.000000pt" height="260.000000pt" viewBox="0 0 260.000000 260.000000"
 preserveAspectRatio="xMidYMid meet">
<metadata>
Created by potrace 1.14, written by Peter Selinger 2001-2017
</metadata>
<g transform="translate(0.000000,260.000000) scale(0.100000,-0.100000)"
fill="#000000" stroke="none">
<path d="M1225 2230 c3 -5 11 -10 16 -10 6 0 7 5 4 10 -3 6 -11 10 -16 10 -6
0 -7 -4 -4 -10z"/>
<path d="M1174 2193 c21 -114 32 -152 43 -145 13 8 -25 182 -40 182 -6 0 -7
-16 -3 -37z"/>
<path d="M1400 2219 c0 -6 7 -37 15 -69 8 -32 16 -70 17 -84 1 -14 8 -26 15
-26 16 0 17 -8 -8 99 -11 50 -25 91 -30 91 -5 0 -9 -5 -9 -11z"/>
<path d="M1120 2210 c-8 -5 -12 -12 -9 -15 4 -3 12 1 19 10 14 17 11 19 -10 5z"/>
<path d="M1579 2148 c-6 -13 -29 -46 -50 -75 -24 -32 -35 -54 -28 -58 6 -4 12
-5 13 -4 15 17 96 145 96 151 0 16 -20 7 -31 -14z"/>
<path d="M1000 2150 c-12 -8 -9 -10 13 -10 16 0 26 4 22 10 -8 12 -16 12 -35
0z"/>
<path d="M1647 2121 c6 -25 -13 -51 -38 -51 -11 0 -17 -7 -17 -17 1 -10 -2
-35 -6 -55 -3 -20 -2 -39 3 -42 11 -7 21 27 21 72 0 24 4 32 18 32 38 0 56 46
28 69 -12 10 -13 8 -9 -8z"/>
<path d="M950 2077 c0 -25 20 -32 82 -29 46 3 58 0 67 -15 9 -16 10 -16 11 -1
0 34 -28 49 -81 42 -33 -4 -54 -3 -64 6 -12 10 -15 10 -15 -3z"/>
<path d="M861 2032 c-57 -89 -74 -154 -75 -282 -1 -106 1 -120 26 -174 49
-103 172 -207 423 -356 240 -142 401 -271 464 -368 73 -114 80 -282 18 -404
-19 -37 -32 -68 -28 -68 19 0 95 68 135 121 71 95 90 154 91 284 0 105 -2 114
-33 178 -61 124 -213 256 -471 409 -293 174 -440 295 -495 409 -33 68 -44 175
-27 244 7 26 10 49 8 52 -3 2 -18 -18 -36 -45z"/>
<path d="M1305 2070 c-3 -5 -1 -10 4 -10 6 0 11 5 11 10 0 6 -2 10 -4 10 -3 0
-8 -4 -11 -10z"/>
<path d="M1720 2064 c0 -1 14 -19 31 -40 17 -22 47 -67 66 -102 19 -35 36 -62
38 -60 1 2 6 48 9 103 l7 100 -75 0 c-42 0 -76 -1 -76 -1z"/>
<path d="M1013 1973 c9 -10 21 -11 38 -5 22 9 21 10 -14 14 -31 3 -35 2 -24
-9z"/>
<path d="M1840 1677 c-11 -23 -25 -35 -55 -44 -28 -8 -33 -12 -17 -12 36 -1
62 -20 77 -54 l14 -32 11 31 c11 30 43 53 78 55 9 0 4 5 -13 11 -40 14 -65 37
-65 60 0 28 -13 21 -30 -15z"/>
<path d="M700 542 l0 -128 63 4 c38 2 87 -2 126 -13 35 -9 65 -14 68 -12 2 3
-19 21 -46 41 -59 44 -128 119 -173 187 -17 27 -33 49 -35 49 -2 0 -3 -58 -3
-128z"/>
<path d="M1015 608 c-44 -25 -58 -76 -32 -112 12 -16 13 -14 9 18 -5 41 17 82
51 96 12 5 15 9 7 9 -8 0 -24 -5 -35 -11z"/>
<path d="M1509 610 c18 -8 22 -16 19 -34 -4 -20 0 -25 21 -29 14 -3 40 -9 56
-12 l30 -6 -25 15 c-14 8 -35 15 -47 16 -16 0 -22 7 -25 28 -2 21 -9 28 -28
29 l-25 3 24 -10z"/>
<path d="M1437 576 c-10 -8 -14 -17 -8 -20 5 -3 11 -1 13 5 2 6 27 -14 56 -44
28 -31 54 -51 58 -46 3 5 -18 34 -48 64 -48 49 -55 53 -71 41z"/>
<path d="M1110 571 c0 -5 5 -13 10 -16 6 -3 10 -2 10 4 0 5 -4 13 -10 16 -5 3
-10 2 -10 -4z"/>
<path d="M1184 503 c3 -21 6 -57 6 -80 0 -28 4 -43 13 -43 10 0 11 17 3 80 -5
44 -13 80 -19 80 -6 0 -7 -15 -3 -37z"/>
<path d="M1290 460 c-22 -44 -36 -80 -30 -80 5 0 27 35 49 78 l39 77 21 -48
c12 -27 24 -59 27 -72 4 -15 11 -22 19 -18 10 3 11 10 5 21 -5 10 -19 41 -31
70 -31 76 -49 71 -99 -28z"/>
<path d="M1250 519 c0 -5 5 -7 10 -4 6 3 10 8 10 11 0 2 -4 4 -10 4 -5 0 -10
-5 -10 -11z"/>
<path d="M1435 500 c-3 -5 1 -10 10 -10 9 0 13 5 10 10 -3 6 -8 10 -10 10 -2
0 -7 -4 -10 -10z"/>
<path d="M1057 479 c-13 -15 -14 -19 -3 -19 17 0 40 26 28 34 -5 3 -16 -4 -25
-15z"/>
<path d="M1480 435 c-8 -9 -8 -15 -2 -15 12 0 26 19 19 26 -2 2 -10 -2 -17
-11z"/>
<path d="M1335 390 c-3 -5 -1 -10 4 -10 6 0 11 5 11 10 0 6 -2 10 -4 10 -3 0
-8 -4 -11 -10z"/>
</g>
</svg>
